<svg width="100" height="100" viewBox="0 0 100 100" fill="none" xmlns="http://www.w3.org/2000/svg">
<g clip-path="url(#clip0_701_201)">
<path d="M28.8606 96.0333C34.7057 98.6425 41.1729 100.1 47.9883 100.1C73.9408 100.1 94.9813 79.0644 94.9813 53.112C94.9813 44.6995 92.7621 36.8116 88.8901 29.9823L28.8606 96.0333Z" fill="#152B81"/>
<path d="M71.7912 12.5955C64.8087 8.48213 56.684 6.11902 47.993 6.11902C22.0405 6.11902 1 27.1549 1 53.112C1 59.0035 2.09102 64.6351 4.07344 69.8348L71.7912 12.5955Z" fill="#152B81"/>
<path d="M20.5734 91.9432L100 0L6.55726 78.0338C3.79488 79.8444 1.95639 82.9596 1.95639 86.4973C1.95639 92.0871 6.48298 96.609 12.0634 96.609C14.5983 96.609 16.9104 95.6712 18.6839 94.1252C19.4081 93.4938 20.0488 92.7556 20.5734 91.9432Z" fill="#5A9CD7"/>
</g>
<defs>
<clipPath id="clip0_701_201">
<rect width="100" height="100" fill="white"/>
</clipPath>
</defs>
</svg>
