<svg width="100" height="100" viewBox="0 0 100 100" fill="none" xmlns="http://www.w3.org/2000/svg">
<g clip-path="url(#clip0_702_89)">
<path d="M25 83.3333V41.6667H91.6667V83.3333C91.6667 87.9167 87.9167 91.6667 83.3333 91.6667H33.3333C28.75 91.6667 25 87.9167 25 83.3333Z" fill="#CFD8DC"/>
<path d="M91.6667 33.3333V45.8333H25V33.3333C25 28.75 28.75 25 33.3333 25H83.3333C87.9167 25 91.6667 28.75 91.6667 33.3333Z" fill="#78909C"/>
<path d="M77.0833 39.5833C80.5351 39.5833 83.3333 36.7851 83.3333 33.3333C83.3333 29.8816 80.5351 27.0833 77.0833 27.0833C73.6316 27.0833 70.8333 29.8816 70.8333 33.3333C70.8333 36.7851 73.6316 39.5833 77.0833 39.5833Z" fill="#37474F"/>
<path d="M41.6667 39.5833C45.1185 39.5833 47.9167 36.7851 47.9167 33.3333C47.9167 29.8816 45.1185 27.0833 41.6667 27.0833C38.2149 27.0833 35.4167 29.8816 35.4167 33.3333C35.4167 36.7851 38.2149 39.5833 41.6667 39.5833Z" fill="#37474F"/>
<path d="M77.0833 20.8333C74.7917 20.8333 72.9167 22.7083 72.9167 25V33.3333C72.9167 35.625 74.7917 37.5 77.0833 37.5C79.375 37.5 81.25 35.625 81.25 33.3333V25C81.25 22.7083 79.375 20.8333 77.0833 20.8333Z" fill="#B0BEC5"/>
<path d="M41.6667 20.8333C39.375 20.8333 37.5 22.7083 37.5 25V33.3333C37.5 35.625 39.375 37.5 41.6667 37.5C43.9583 37.5 45.8333 35.625 45.8333 33.3333V25C45.8333 22.7083 43.9583 20.8333 41.6667 20.8333Z" fill="#B0BEC5"/>
<path d="M75 70.8333H66.6667V79.1667H75V70.8333Z" fill="#90A4AE"/>
<path d="M62.5 70.8333H54.1667V79.1667H62.5V70.8333Z" fill="#90A4AE"/>
<path d="M50 70.8333H41.6667V79.1667H50V70.8333Z" fill="#90A4AE"/>
<path d="M75 58.3333H66.6667V66.6667H75V58.3333Z" fill="#90A4AE"/>
<path d="M62.5 58.3333H54.1667V66.6667H62.5V58.3333Z" fill="#90A4AE"/>
<path d="M50 58.3333H41.6667V66.6667H50V58.3333Z" fill="#90A4AE"/>
<path d="M33.3333 56.25C47.1404 56.25 58.3333 45.0571 58.3333 31.25C58.3333 17.4429 47.1404 6.25 33.3333 6.25C19.5262 6.25 8.33333 17.4429 8.33333 31.25C8.33333 45.0571 19.5262 56.25 33.3333 56.25Z" fill="#F44336"/>
<path d="M33.3333 50C43.6887 50 52.0833 41.6053 52.0833 31.25C52.0833 20.8947 43.6887 12.5 33.3333 12.5C22.978 12.5 14.5833 20.8947 14.5833 31.25C14.5833 41.6053 22.978 50 33.3333 50Z" fill="#EEEEEE"/>
<path d="M35.4167 16.6667H31.25V31.25H35.4167V16.6667Z" fill="black"/>
<path d="M39.9475 40.5092L42.7465 37.7102L34.7915 29.7553L31.9925 32.5542L39.9475 40.5092Z" fill="black"/>
<path d="M33.3333 34.375C35.0592 34.375 36.4583 32.9759 36.4583 31.25C36.4583 29.5241 35.0592 28.125 33.3333 28.125C31.6074 28.125 30.2083 29.5241 30.2083 31.25C30.2083 32.9759 31.6074 34.375 33.3333 34.375Z" fill="black"/>
</g>
<defs>
<clipPath id="clip0_702_89">
<rect width="100" height="100" fill="white"/>
</clipPath>
</defs>
</svg>
